<svg id="Layer_1" data-name="Layer 1" xmlns="http://www.w3.org/2000/svg" viewBox="0 0 1354 918"><defs><style>.cls-1{fill:#ed1c24;}.cls-1,.cls-2,.cls-3,.cls-4,.cls-5{opacity:0.31;}.cls-2{fill:#f15a24;}.cls-3{fill:#f7931e;}.cls-4{fill:#fbb03b;}.cls-5{fill:#fbd31b;}.cls-50,.cls-6,.cls-9{fill:none;stroke:#3b3b40;stroke-miterlimit:10;}.cls-7{font-size:12px;fill:#3b3b40;}.cls-29,.cls-7{font-family:Barlow-Regular, Barlow;}.cls-8{letter-spacing:-0.01em;}.cls-9{stroke-width:0.25px;}.cls-10{letter-spacing:0em;}.cls-11{letter-spacing:-0.02em;}.cls-12{fill:#2e6d87;}.cls-13{fill:#9fbcc8;}.cls-14{letter-spacing:0em;}.cls-15{letter-spacing:0em;}.cls-16{letter-spacing:-0.03em;}.cls-17{letter-spacing:-0.01em;}.cls-18{letter-spacing:-0.01em;}.cls-19{letter-spacing:-0.05em;}.cls-20{letter-spacing:-0.02em;}.cls-21{letter-spacing:0em;}.cls-22{letter-spacing:-0.05em;}.cls-23{letter-spacing:0.03em;}.cls-24{letter-spacing:-0.04em;}.cls-25{letter-spacing:-0.01em;}.cls-26{letter-spacing:-0.01em;}.cls-27{letter-spacing:-0.01em;}.cls-28{letter-spacing:0em;}.cls-29{font-size:18px;}.cls-30{letter-spacing:-0.01em;}.cls-31{letter-spacing:0em;}.cls-32{letter-spacing:-0.02em;}.cls-33{letter-spacing:-0.01em;}.cls-34{letter-spacing:-0.01em;}.cls-35{letter-spacing:-0.05em;}.cls-36{letter-spacing:-0.01em;}.cls-37{font-size:40px;font-family:PlayfairDisplay-Regular, Playfair Display;}.cls-38{letter-spacing:-0.02em;}.cls-39{letter-spacing:-0.03em;}.cls-40{letter-spacing:-0.01em;}.cls-41{letter-spacing:-0.01em;}.cls-42{letter-spacing:-0.01em;}.cls-43{font-size:24px;}.cls-44{letter-spacing:0em;}.cls-45{letter-spacing:-0.02em;}.cls-46{letter-spacing:0em;}.cls-47{letter-spacing:-0.03em;}.cls-48{letter-spacing:-0.06em;}.cls-49{letter-spacing:-0.03em;}.cls-50{stroke-width:0.5px;}</style></defs><rect class="cls-1" x="116" y="159" width="1112" height="317"/><rect class="cls-2" x="115" y="476" width="1113" height="78"/><rect class="cls-3" x="115" y="554" width="1113" height="78"/><rect class="cls-4" x="115" y="632" width="1113" height="78"/><rect class="cls-5" x="115" y="710" width="1113" height="79"/><line class="cls-6" x1="115.64" y1="157.5" x2="115.64" y2="789.4"/><line class="cls-6" x1="1227.5" y1="788.5" x2="115.14" y2="790.4"/><text class="cls-7" transform="translate(100.69 792.09)">0</text><text class="cls-7" transform="translate(94.26 761.09)">20</text><text class="cls-7" transform="translate(94.08 730.09)">40</text><text class="cls-7" transform="translate(94.51 699.09)">60</text><text class="cls-7" transform="translate(94.44 668.09)">80</text><text class="cls-7" transform="translate(89.71 637.09)">100</text><text class="cls-7" transform="translate(90.06 606.09)">120</text><text class="cls-7" transform="translate(89.88 575.09)">140</text><text class="cls-7" transform="translate(90.31 544.09)">160</text><text class="cls-7" transform="translate(90.24 513.09)">180</text><text class="cls-7" transform="translate(87.48 482.09)">200</text><text class="cls-7" transform="translate(87.83 451.09)">220</text><text class="cls-7" transform="translate(87.65 420.09)">240</text><text class="cls-7" transform="translate(88.08 389.09)">260</text><text class="cls-7" transform="translate(88.01 358.09)">280</text><text class="cls-7" transform="translate(87.73 327.09)">300</text><text class="cls-7" transform="translate(88.08 296.09)">320</text><text class="cls-7" transform="translate(87.9 265.09)">340</text><text class="cls-7" transform="translate(88.33 234.09)">360</text><text class="cls-7" transform="translate(142.37 847.29) rotate(-90)">Alabama</text><text class="cls-7" transform="translate(163.37 836.35) rotate(-90)">Alas<tspan class="cls-8" x="21.95" y="0">k</tspan><tspan x="27.85" y="0">a</tspan></text><line class="cls-9" x1="140.13" y1="789.2" x2="135.76" y2="158.72"/><line class="cls-9" x1="161.13" y1="789.22" x2="156.76" y2="158.73"/><text class="cls-7" transform="translate(184.61 841.34) rotate(-90)">Arizona</text><text class="cls-7" transform="translate(205.61 830.19) rotate(-90)">St<tspan class="cls-10" x="11.38" y="0">a</tspan><tspan class="cls-11" x="17.46" y="0">t</tspan><tspan x="21.65" y="0">e</tspan></text><line class="cls-9" x1="183.13" y1="789.23" x2="178.76" y2="158.75"/><line class="cls-9" x1="204.13" y1="789.24" x2="199.76" y2="158.76"/><text class="cls-7" transform="translate(226.61 830.19) rotate(-90)">St<tspan class="cls-10" x="11.38" y="0">a</tspan><tspan class="cls-11" x="17.46" y="0">t</tspan><tspan x="21.65" y="0">e</tspan></text><line class="cls-9" x1="225.13" y1="790.35" x2="220.76" y2="159.86"/><text class="cls-7" transform="translate(248.61 830.19) rotate(-90)">St<tspan class="cls-10" x="11.38" y="0">a</tspan><tspan class="cls-11" x="17.46" y="0">t</tspan><tspan x="21.65" y="0">e</tspan></text><line class="cls-9" x1="247.13" y1="789.27" x2="242.76" y2="158.79"/><text class="cls-7" transform="translate(269.61 830.19) rotate(-90)">St<tspan class="cls-10" x="11.38" y="0">a</tspan><tspan class="cls-11" x="17.46" y="0">t</tspan><tspan x="21.65" y="0">e</tspan></text><line class="cls-9" x1="268.13" y1="790.38" x2="263.76" y2="159.89"/><text class="cls-7" transform="translate(292.61 830.19) rotate(-90)">St<tspan class="cls-10" x="11.38" y="0">a</tspan><tspan class="cls-11" x="17.46" y="0">t</tspan><tspan x="21.65" y="0">e</tspan></text><line class="cls-9" x1="291.13" y1="789.3" x2="286.76" y2="158.81"/><text class="cls-7" transform="translate(313.61 830.19) rotate(-90)">St<tspan class="cls-10" x="11.38" y="0">a</tspan><tspan class="cls-11" x="17.46" y="0">t</tspan><tspan x="21.65" y="0">e</tspan></text><line class="cls-9" x1="312.13" y1="790.4" x2="307.76" y2="159.92"/><text class="cls-7" transform="translate(335.61 830.19) rotate(-90)">St<tspan class="cls-10" x="11.38" y="0">a</tspan><tspan class="cls-11" x="17.46" y="0">t</tspan><tspan x="21.65" y="0">e</tspan></text><line class="cls-9" x1="334.13" y1="789.33" x2="329.76" y2="158.84"/><text class="cls-7" transform="translate(356.61 830.19) rotate(-90)">St<tspan class="cls-10" x="11.38" y="0">a</tspan><tspan class="cls-11" x="17.46" y="0">t</tspan><tspan x="21.65" y="0">e</tspan></text><line class="cls-9" x1="355.13" y1="790.43" x2="350.76" y2="159.95"/><text class="cls-7" transform="translate(378.61 830.19) rotate(-90)">St<tspan class="cls-10" x="11.38" y="0">a</tspan><tspan class="cls-11" x="17.46" y="0">t</tspan><tspan x="21.65" y="0">e</tspan></text><line class="cls-9" x1="377.13" y1="789.35" x2="372.76" y2="158.87"/><text class="cls-7" transform="translate(399.61 830.19) rotate(-90)">St<tspan class="cls-10" x="11.38" y="0">a</tspan><tspan class="cls-11" x="17.46" y="0">t</tspan><tspan x="21.65" y="0">e</tspan></text><line class="cls-9" x1="398.13" y1="790.46" x2="393.76" y2="159.98"/><text class="cls-7" transform="translate(422.61 830.19) rotate(-90)">St<tspan class="cls-10" x="11.38" y="0">a</tspan><tspan class="cls-11" x="17.46" y="0">t</tspan><tspan x="21.65" y="0">e</tspan></text><line class="cls-9" x1="421.13" y1="789.38" x2="416.76" y2="158.9"/><text class="cls-7" transform="translate(443.61 830.19) rotate(-90)">St<tspan class="cls-10" x="11.38" y="0">a</tspan><tspan class="cls-11" x="17.46" y="0">t</tspan><tspan x="21.65" y="0">e</tspan></text><line class="cls-9" x1="442.13" y1="790.49" x2="437.76" y2="160"/><text class="cls-7" transform="translate(465.61 830.19) rotate(-90)">St<tspan class="cls-10" x="11.38" y="0">a</tspan><tspan class="cls-11" x="17.46" y="0">t</tspan><tspan x="21.65" y="0">e</tspan></text><line class="cls-9" x1="464.13" y1="789.41" x2="459.76" y2="158.93"/><text class="cls-7" transform="translate(486.61 830.19) rotate(-90)">St<tspan class="cls-10" x="11.38" y="0">a</tspan><tspan class="cls-11" x="17.46" y="0">t</tspan><tspan x="21.65" y="0">e</tspan></text><line class="cls-9" x1="485.13" y1="790.52" x2="480.76" y2="160.03"/><text class="cls-7" transform="translate(508.61 830.19) rotate(-90)">St<tspan class="cls-10" x="11.38" y="0">a</tspan><tspan class="cls-11" x="17.46" y="0">t</tspan><tspan x="21.65" y="0">e</tspan></text><line class="cls-9" x1="507.13" y1="789.44" x2="502.76" y2="158.95"/><text class="cls-7" transform="translate(529.61 830.19) rotate(-90)">St<tspan class="cls-10" x="11.38" y="0">a</tspan><tspan class="cls-11" x="17.46" y="0">t</tspan><tspan x="21.65" y="0">e</tspan></text><line class="cls-9" x1="528.13" y1="790.54" x2="523.76" y2="160.06"/><text class="cls-7" transform="translate(552.61 830.19) rotate(-90)">St<tspan class="cls-10" x="11.38" y="0">a</tspan><tspan class="cls-11" x="17.46" y="0">t</tspan><tspan x="21.65" y="0">e</tspan></text><line class="cls-9" x1="551.13" y1="789.47" x2="546.76" y2="158.98"/><text class="cls-7" transform="translate(573.61 830.19) rotate(-90)">St<tspan class="cls-10" x="11.38" y="0">a</tspan><tspan class="cls-11" x="17.46" y="0">t</tspan><tspan x="21.65" y="0">e</tspan></text><line class="cls-9" x1="572.13" y1="790.57" x2="567.76" y2="160.09"/><text class="cls-7" transform="translate(595.61 830.19) rotate(-90)">St<tspan class="cls-10" x="11.38" y="0">a</tspan><tspan class="cls-11" x="17.46" y="0">t</tspan><tspan x="21.65" y="0">e</tspan></text><line class="cls-9" x1="594.13" y1="789.49" x2="589.76" y2="159.01"/><text class="cls-7" transform="translate(616.61 830.19) rotate(-90)">St<tspan class="cls-10" x="11.38" y="0">a</tspan><tspan class="cls-11" x="17.46" y="0">t</tspan><tspan x="21.65" y="0">e</tspan></text><line class="cls-9" x1="615.13" y1="790.6" x2="610.76" y2="160.12"/><text class="cls-7" transform="translate(638.61 830.19) rotate(-90)">St<tspan class="cls-10" x="11.38" y="0">a</tspan><tspan class="cls-11" x="17.46" y="0">t</tspan><tspan x="21.65" y="0">e</tspan></text><line class="cls-9" x1="637.13" y1="789.52" x2="632.76" y2="159.04"/><text class="cls-7" transform="translate(659.61 830.19) rotate(-90)">St<tspan class="cls-10" x="11.38" y="0">a</tspan><tspan class="cls-11" x="17.46" y="0">t</tspan><tspan x="21.65" y="0">e</tspan></text><line class="cls-9" x1="658.13" y1="790.63" x2="653.76" y2="160.14"/><text class="cls-7" transform="translate(682.61 830.19) rotate(-90)">St<tspan class="cls-10" x="11.38" y="0">a</tspan><tspan class="cls-11" x="17.46" y="0">t</tspan><tspan x="21.65" y="0">e</tspan></text><line class="cls-9" x1="681.13" y1="789.55" x2="676.76" y2="159.07"/><text class="cls-7" transform="translate(703.61 830.19) rotate(-90)">St<tspan class="cls-10" x="11.38" y="0">a</tspan><tspan class="cls-11" x="17.46" y="0">t</tspan><tspan x="21.65" y="0">e</tspan></text><line class="cls-9" x1="702.13" y1="790.66" x2="697.76" y2="160.17"/><text class="cls-7" transform="translate(725.61 829.19) rotate(-90)">St<tspan class="cls-10" x="11.38" y="0">a</tspan><tspan class="cls-11" x="17.46" y="0">t</tspan><tspan x="21.65" y="0">e</tspan></text><line class="cls-9" x1="724.13" y1="788.48" x2="719.76" y2="158"/><text class="cls-7" transform="translate(746.61 829.19) rotate(-90)">St<tspan class="cls-10" x="11.38" y="0">a</tspan><tspan class="cls-11" x="17.46" y="0">t</tspan><tspan x="21.65" y="0">e</tspan></text><line class="cls-9" x1="745.13" y1="789.59" x2="740.76" y2="159.11"/><text class="cls-7" transform="translate(768.61 829.19) rotate(-90)">St<tspan class="cls-10" x="11.38" y="0">a</tspan><tspan class="cls-11" x="17.46" y="0">t</tspan><tspan x="21.65" y="0">e</tspan></text><line class="cls-9" x1="767.13" y1="788.51" x2="762.76" y2="158.03"/><text class="cls-7" transform="translate(789.61 829.19) rotate(-90)">St<tspan class="cls-10" x="11.38" y="0">a</tspan><tspan class="cls-11" x="17.46" y="0">t</tspan><tspan x="21.65" y="0">e</tspan></text><line class="cls-9" x1="788.13" y1="789.62" x2="783.76" y2="159.13"/><text class="cls-7" transform="translate(812.61 829.19) rotate(-90)">St<tspan class="cls-10" x="11.38" y="0">a</tspan><tspan class="cls-11" x="17.46" y="0">t</tspan><tspan x="21.65" y="0">e</tspan></text><line class="cls-9" x1="811.13" y1="788.54" x2="806.76" y2="158.06"/><text class="cls-7" transform="translate(833.61 829.19) rotate(-90)">St<tspan class="cls-10" x="11.38" y="0">a</tspan><tspan class="cls-11" x="17.46" y="0">t</tspan><tspan x="21.65" y="0">e</tspan></text><line class="cls-9" x1="832.13" y1="789.65" x2="827.76" y2="159.16"/><text class="cls-7" transform="translate(855.61 829.19) rotate(-90)">St<tspan class="cls-10" x="11.38" y="0">a</tspan><tspan class="cls-11" x="17.46" y="0">t</tspan><tspan x="21.65" y="0">e</tspan></text><line class="cls-9" x1="854.13" y1="788.57" x2="849.76" y2="158.08"/><text class="cls-7" transform="translate(876.61 829.19) rotate(-90)">St<tspan class="cls-10" x="11.38" y="0">a</tspan><tspan class="cls-11" x="17.46" y="0">t</tspan><tspan x="21.65" y="0">e</tspan></text><line class="cls-9" x1="875.13" y1="789.67" x2="870.76" y2="159.19"/><text class="cls-7" transform="translate(898.61 829.19) rotate(-90)">St<tspan class="cls-10" x="11.38" y="0">a</tspan><tspan class="cls-11" x="17.46" y="0">t</tspan><tspan x="21.65" y="0">e</tspan></text><line class="cls-9" x1="897.13" y1="788.6" x2="892.76" y2="158.11"/><text class="cls-7" transform="translate(919.61 829.19) rotate(-90)">St<tspan class="cls-10" x="11.38" y="0">a</tspan><tspan class="cls-11" x="17.46" y="0">t</tspan><tspan x="21.65" y="0">e</tspan></text><line class="cls-9" x1="918.13" y1="789.7" x2="913.76" y2="159.22"/><text class="cls-7" transform="translate(942.61 829.19) rotate(-90)">St<tspan class="cls-10" x="11.38" y="0">a</tspan><tspan class="cls-11" x="17.46" y="0">t</tspan><tspan x="21.65" y="0">e</tspan></text><line class="cls-9" x1="941.13" y1="788.62" x2="936.76" y2="158.14"/><text class="cls-7" transform="translate(963.61 829.19) rotate(-90)">St<tspan class="cls-10" x="11.38" y="0">a</tspan><tspan class="cls-11" x="17.46" y="0">t</tspan><tspan x="21.65" y="0">e</tspan></text><line class="cls-9" x1="962.13" y1="789.73" x2="957.76" y2="159.25"/><text class="cls-7" transform="translate(985.61 829.19) rotate(-90)">St<tspan class="cls-10" x="11.38" y="0">a</tspan><tspan class="cls-11" x="17.46" y="0">t</tspan><tspan x="21.65" y="0">e</tspan></text><line class="cls-9" x1="984.13" y1="788.65" x2="979.76" y2="158.17"/><text class="cls-7" transform="translate(1006.61 829.19) rotate(-90)">St<tspan class="cls-10" x="11.38" y="0">a</tspan><tspan class="cls-11" x="17.46" y="0">t</tspan><tspan x="21.65" y="0">e</tspan></text><line class="cls-9" x1="1005.13" y1="789.76" x2="1000.76" y2="159.27"/><text class="cls-7" transform="translate(1028.61 829.19) rotate(-90)">St<tspan class="cls-10" x="11.38" y="0">a</tspan><tspan class="cls-11" x="17.46" y="0">t</tspan><tspan x="21.65" y="0">e</tspan></text><line class="cls-9" x1="1027.13" y1="788.68" x2="1022.76" y2="158.19"/><text class="cls-7" transform="translate(1049.61 829.19) rotate(-90)">St<tspan class="cls-10" x="11.38" y="0">a</tspan><tspan class="cls-11" x="17.46" y="0">t</tspan><tspan x="21.65" y="0">e</tspan></text><line class="cls-9" x1="1048.13" y1="789.79" x2="1043.76" y2="159.3"/><text class="cls-7" transform="translate(1072.61 829.19) rotate(-90)">St<tspan class="cls-10" x="11.38" y="0">a</tspan><tspan class="cls-11" x="17.46" y="0">t</tspan><tspan x="21.65" y="0">e</tspan></text><line class="cls-9" x1="1071.13" y1="788.71" x2="1066.76" y2="158.22"/><text class="cls-7" transform="translate(1093.61 829.19) rotate(-90)">St<tspan class="cls-10" x="11.38" y="0">a</tspan><tspan class="cls-11" x="17.46" y="0">t</tspan><tspan x="21.65" y="0">e</tspan></text><line class="cls-9" x1="1092.13" y1="789.81" x2="1087.76" y2="159.33"/><text class="cls-7" transform="translate(1115.61 829.19) rotate(-90)">St<tspan class="cls-10" x="11.38" y="0">a</tspan><tspan class="cls-11" x="17.46" y="0">t</tspan><tspan x="21.65" y="0">e</tspan></text><line class="cls-9" x1="1114.13" y1="788.73" x2="1109.76" y2="158.25"/><text class="cls-7" transform="translate(1136.61 829.19) rotate(-90)">St<tspan class="cls-10" x="11.38" y="0">a</tspan><tspan class="cls-11" x="17.46" y="0">t</tspan><tspan x="21.65" y="0">e</tspan></text><line class="cls-9" x1="1135.13" y1="789.84" x2="1130.76" y2="159.36"/><text class="cls-7" transform="translate(1158.61 829.19) rotate(-90)">St<tspan class="cls-10" x="11.38" y="0">a</tspan><tspan class="cls-11" x="17.46" y="0">t</tspan><tspan x="21.65" y="0">e</tspan></text><line class="cls-9" x1="1157.13" y1="788.76" x2="1152.76" y2="158.28"/><text class="cls-7" transform="translate(1179.61 829.19) rotate(-90)">St<tspan class="cls-10" x="11.38" y="0">a</tspan><tspan class="cls-11" x="17.46" y="0">t</tspan><tspan x="21.65" y="0">e</tspan></text><line class="cls-9" x1="1178.13" y1="789.87" x2="1173.76" y2="159.38"/><text class="cls-7" transform="translate(1202.61 829.19) rotate(-90)">St<tspan class="cls-10" x="11.38" y="0">a</tspan><tspan class="cls-11" x="17.46" y="0">t</tspan><tspan x="21.65" y="0">e</tspan></text><line class="cls-9" x1="1201.13" y1="788.79" x2="1196.76" y2="158.31"/><text class="cls-7" transform="translate(1223.61 829.19) rotate(-90)">St<tspan class="cls-10" x="11.38" y="0">a</tspan><tspan class="cls-11" x="17.46" y="0">t</tspan><tspan x="21.65" y="0">e</tspan></text><line class="cls-9" x1="1222.13" y1="789.9" x2="1217.76" y2="159.41"/><circle class="cls-12" cx="138.14" cy="697.9" r="5"/><circle class="cls-12" cx="138.14" cy="654.9" r="5"/><circle class="cls-12" cx="138.14" cy="393.9" r="5"/><circle class="cls-12" cx="159.14" cy="388.9" r="5"/><circle class="cls-12" cx="179.14" cy="324.9" r="5"/><circle class="cls-12" cx="181.14" cy="548.9" r="5"/><circle class="cls-12" cx="223.14" cy="530.9" r="5"/><circle class="cls-12" cx="246" cy="531" r="5"/><circle class="cls-12" cx="244.14" cy="344.9" r="5"/><circle class="cls-12" cx="244.14" cy="356.9" r="5"/><circle class="cls-12" cx="246" cy="572" r="5"/><circle class="cls-12" cx="245.14" cy="486.9" r="5"/><circle class="cls-12" cx="246.14" cy="640.9" r="5"/><circle class="cls-12" cx="246.14" cy="685.9" r="5"/><circle class="cls-12" cx="246.14" cy="730.9" r="5"/><circle class="cls-12" cx="290.14" cy="592.9" r="5"/><circle class="cls-12" cx="310.14" cy="510.9" r="5"/><circle class="cls-12" cx="310.14" cy="479.9" r="5"/><circle class="cls-12" cx="310" cy="433" r="5"/><circle class="cls-12" cx="309.14" cy="393.9" r="5"/><circle class="cls-12" cx="309.14" cy="243.9" r="5"/><circle class="cls-12" cx="352.14" cy="282.9" r="5"/><circle class="cls-12" cx="354.14" cy="541.9" r="5"/><circle class="cls-12" cx="372" cy="377" r="5"/><circle class="cls-12" cx="397" cy="539" r="5"/><circle class="cls-12" cx="897.14" cy="743.9" r="5"/><circle class="cls-12" cx="897.14" cy="700.9" r="5"/><circle class="cls-12" cx="897.14" cy="439.9" r="5"/><circle class="cls-12" cx="917" cy="486" r="5"/><circle class="cls-12" cx="938.14" cy="370.9" r="5"/><circle class="cls-12" cx="940.14" cy="594.9" r="5"/><circle class="cls-12" cx="982.14" cy="576.9" r="5"/><circle class="cls-12" cx="1003.14" cy="390.9" r="5"/><circle class="cls-12" cx="1026" cy="486" r="5"/><circle class="cls-12" cx="1004.14" cy="488.9" r="5"/><circle class="cls-12" cx="1004.14" cy="532.9" r="5"/><circle class="cls-12" cx="1005.14" cy="686.9" r="5"/><circle class="cls-12" cx="1005.14" cy="731.9" r="5"/><circle class="cls-12" cx="1005.14" cy="745.9" r="5"/><circle class="cls-12" cx="1005.14" cy="776.9" r="5"/><circle class="cls-12" cx="1049.14" cy="638.9" r="5"/><circle class="cls-12" cx="1069.14" cy="556.9" r="5"/><circle class="cls-12" cx="1069.14" cy="525.9" r="5"/><circle class="cls-12" cx="1069.14" cy="506.9" r="5"/><circle class="cls-12" cx="1068.14" cy="439.9" r="5"/><circle class="cls-12" cx="1067.14" cy="231.9" r="5"/><circle class="cls-12" cx="1111.14" cy="328.9" r="5"/><circle class="cls-12" cx="1176.14" cy="507.9" r="5"/><circle class="cls-12" cx="1177.14" cy="530.9" r="5"/><circle class="cls-12" cx="1177.14" cy="660.9" r="5"/><circle class="cls-12" cx="1177.14" cy="679.9" r="5"/><circle class="cls-12" cx="1198.14" cy="602.9" r="5"/><circle class="cls-12" cx="1199.14" cy="481.9" r="5"/><circle class="cls-12" cx="1200.14" cy="758.9" r="5"/><circle class="cls-12" cx="1220.14" cy="561.9" r="5"/><circle class="cls-12" cx="1219.14" cy="377.9" r="5"/><circle class="cls-12" cx="1113.14" cy="587.9" r="5"/><circle class="cls-12" cx="1134.14" cy="556.9" r="5"/><circle class="cls-12" cx="1154.14" cy="412.9" r="5"/><circle class="cls-12" cx="679.14" cy="730.9" r="5"/><circle class="cls-12" cx="679.14" cy="687.9" r="5"/><circle class="cls-12" cx="679.14" cy="426.9" r="5"/><circle class="cls-12" cx="700.14" cy="421.9" r="5"/><circle class="cls-12" cx="720.14" cy="357.9" r="5"/><circle class="cls-12" cx="722.14" cy="581.9" r="5"/><circle class="cls-12" cx="764.14" cy="563.9" r="5"/><circle class="cls-12" cx="787" cy="549" r="5"/><circle class="cls-12" cx="785.14" cy="377.9" r="5"/><circle class="cls-12" cx="785.14" cy="389.9" r="5"/><circle class="cls-12" cx="786.14" cy="475.9" r="5"/><circle class="cls-12" cx="786.14" cy="519.9" r="5"/><circle class="cls-12" cx="785.14" cy="589.9" r="5"/><circle class="cls-12" cx="787.14" cy="718.9" r="5"/><circle class="cls-12" cx="787.14" cy="763.9" r="5"/><circle class="cls-12" cx="831.14" cy="625.9" r="5"/><circle class="cls-12" cx="851.14" cy="543.9" r="5"/><circle class="cls-12" cx="851.14" cy="512.9" r="5"/><circle class="cls-12" cx="851.14" cy="493.9" r="5"/><circle class="cls-12" cx="851" cy="578" r="5"/><circle class="cls-12" cx="850.14" cy="302.9" r="5"/><circle class="cls-12" cx="893.14" cy="315.9" r="5"/><circle class="cls-12" cx="895.14" cy="574.9" r="5"/><circle class="cls-12" cx="916.14" cy="543.9" r="5"/><circle class="cls-12" cx="940" cy="489" r="5"/><circle class="cls-12" cx="1219.14" cy="457.9" r="5"/><circle class="cls-12" cx="1220.14" cy="432.9" r="5"/><circle class="cls-12" cx="506.14" cy="660.9" r="5"/><circle class="cls-12" cx="506.14" cy="648.9" r="5"/><circle class="cls-12" cx="506.14" cy="387.9" r="5"/><circle class="cls-12" cx="527.14" cy="382.9" r="5"/><circle class="cls-12" cx="547.14" cy="318.9" r="5"/><circle class="cls-12" cx="551.14" cy="765.9" r="5"/><circle class="cls-12" cx="591.14" cy="524.9" r="5"/><circle class="cls-12" cx="612.14" cy="400.9" r="5"/><circle class="cls-12" cx="612.14" cy="338.9" r="5"/><circle class="cls-12" cx="612.14" cy="350.9" r="5"/><circle class="cls-12" cx="613.14" cy="436.9" r="5"/><circle class="cls-12" cx="613.14" cy="480.9" r="5"/><circle class="cls-12" cx="614.14" cy="634.9" r="5"/><circle class="cls-12" cx="614.14" cy="679.9" r="5"/><circle class="cls-12" cx="614.14" cy="724.9" r="5"/><circle class="cls-12" cx="658.14" cy="586.9" r="5"/><circle class="cls-12" cx="678.14" cy="504.9" r="5"/><circle class="cls-12" cx="678.14" cy="473.9" r="5"/><circle class="cls-12" cx="419" cy="520" r="5"/><circle class="cls-12" cx="677.14" cy="387.9" r="5"/><circle class="cls-12" cx="720.14" cy="276.9" r="5"/><circle class="cls-12" cx="722.14" cy="535.9" r="5"/><circle class="cls-12" cx="743.14" cy="504.9" r="5"/><circle class="cls-12" cx="763.14" cy="360.9" r="5"/><circle class="cls-12" cx="354.14" cy="712.9" r="5"/><circle class="cls-12" cx="354.14" cy="669.9" r="5"/><circle class="cls-12" cx="354.14" cy="408.9" r="5"/><circle class="cls-12" cx="353" cy="503" r="5"/><circle class="cls-12" cx="395.14" cy="339.9" r="5"/><circle class="cls-12" cx="397.14" cy="563.9" r="5"/><circle class="cls-12" cx="439.14" cy="545.9" r="5"/><circle class="cls-12" cx="460" cy="567" r="5"/><circle class="cls-12" cx="460.14" cy="359.9" r="5"/><circle class="cls-12" cx="461" cy="608" r="5"/><circle class="cls-12" cx="461.14" cy="457.9" r="5"/><circle class="cls-12" cx="461.14" cy="501.9" r="5"/><circle class="cls-12" cx="462.14" cy="655.9" r="5"/><circle class="cls-12" cx="462.14" cy="745.9" r="5"/><circle class="cls-12" cx="506.14" cy="607.9" r="5"/><circle class="cls-12" cx="526.14" cy="525.9" r="5"/><circle class="cls-12" cx="526.14" cy="494.9" r="5"/><circle class="cls-12" cx="526.14" cy="475.9" r="5"/><circle class="cls-12" cx="525.14" cy="408.9" r="5"/><circle class="cls-12" cx="525.14" cy="258.9" r="5"/><circle class="cls-12" cx="570" cy="588" r="5"/><circle class="cls-12" cx="570.14" cy="556.9" r="5"/><circle class="cls-12" cx="591.14" cy="525.9" r="5"/><circle class="cls-13" cx="160.14" cy="771.9" r="5"/><circle class="cls-13" cx="140.14" cy="757.9" r="5"/><circle class="cls-13" cx="160.14" cy="510.9" r="5"/><circle class="cls-13" cx="138.14" cy="556.9" r="5"/><circle class="cls-13" cx="138.14" cy="541.9" r="5"/><circle class="cls-13" cx="159" cy="596" r="5"/><circle class="cls-13" cx="181.14" cy="505.9" r="5"/><circle class="cls-13" cx="203" cy="531" r="5"/><circle class="cls-13" cx="201.14" cy="441.9" r="5"/><circle class="cls-13" cx="203.14" cy="665.9" r="5"/><circle class="cls-13" cx="266.14" cy="523.9" r="5"/><circle class="cls-13" cx="224" cy="594" r="5"/><circle class="cls-13" cx="266.14" cy="473.9" r="5"/><circle class="cls-13" cx="267.14" cy="559.9" r="5"/><circle class="cls-13" cx="267.14" cy="603.9" r="5"/><circle class="cls-13" cx="268.14" cy="757.9" r="5"/><circle class="cls-13" cx="269.14" cy="735.9" r="5"/><circle class="cls-13" cx="312.14" cy="709.9" r="5"/><circle class="cls-13" cx="332.14" cy="627.9" r="5"/><circle class="cls-13" cx="332.14" cy="596.9" r="5"/><circle class="cls-13" cx="332.14" cy="577.9" r="5"/><circle class="cls-13" cx="331.14" cy="510.9" r="5"/><circle class="cls-13" cx="331" cy="444" r="5"/><circle class="cls-13" cx="375" cy="433" r="5"/><circle class="cls-13" cx="376.14" cy="658.9" r="5"/><circle class="cls-13" cx="397.14" cy="627.9" r="5"/><circle class="cls-13" cx="420" cy="542" r="5"/><circle class="cls-13" cx="961" cy="588" r="5"/><circle class="cls-13" cx="919.14" cy="753.9" r="5"/><circle class="cls-13" cx="917.14" cy="556.9" r="5"/><circle class="cls-13" cx="940.14" cy="551.9" r="5"/><circle class="cls-13" cx="960.14" cy="487.9" r="5"/><circle class="cls-13" cx="962.14" cy="711.9" r="5"/><circle class="cls-13" cx="1005.14" cy="698.9" r="5"/><circle class="cls-13" cx="1025.14" cy="569.9" r="5"/><circle class="cls-13" cx="1025.14" cy="507.9" r="5"/><circle class="cls-13" cx="1025.14" cy="519.9" r="5"/><circle class="cls-13" cx="1026.14" cy="605.9" r="5"/><circle class="cls-13" cx="1026.14" cy="649.9" r="5"/><circle class="cls-13" cx="1071.14" cy="755.9" r="5"/><circle class="cls-13" cx="1091.14" cy="673.9" r="5"/><circle class="cls-13" cx="1091.14" cy="642.9" r="5"/><circle class="cls-13" cx="1091.14" cy="623.9" r="5"/><circle class="cls-13" cx="1090.14" cy="556.9" r="5"/><circle class="cls-13" cx="1092" cy="497" r="5"/><circle class="cls-13" cx="1133.14" cy="445.9" r="5"/><circle class="cls-13" cx="1198.14" cy="624.9" r="5"/><circle class="cls-13" cx="1199.14" cy="647.9" r="5"/><circle class="cls-13" cx="1200.14" cy="777.9" r="5"/><circle class="cls-13" cx="1220.14" cy="719.9" r="5"/><circle class="cls-13" cx="1221.14" cy="598.9" r="5"/><circle class="cls-13" cx="1220" cy="531" r="5"/><circle class="cls-13" cx="1135.14" cy="704.9" r="5"/><circle class="cls-13" cx="1156.14" cy="673.9" r="5"/><circle class="cls-13" cx="1177.14" cy="523.9" r="5"/><circle class="cls-13" cx="831" cy="538" r="5"/><circle class="cls-13" cx="701.14" cy="543.9" r="5"/><circle class="cls-13" cx="722.14" cy="538.9" r="5"/><circle class="cls-13" cx="742.14" cy="474.9" r="5"/><circle class="cls-13" cx="744.14" cy="698.9" r="5"/><circle class="cls-13" cx="786.14" cy="680.9" r="5"/><circle class="cls-13" cx="807.14" cy="556.9" r="5"/><circle class="cls-13" cx="807.14" cy="494.9" r="5"/><circle class="cls-13" cx="807.14" cy="506.9" r="5"/><circle class="cls-13" cx="808.14" cy="592.9" r="5"/><circle class="cls-13" cx="808.14" cy="636.9" r="5"/><circle class="cls-13" cx="807.14" cy="706.9" r="5"/><circle class="cls-13" cx="853.14" cy="742.9" r="5"/><circle class="cls-13" cx="873.14" cy="660.9" r="5"/><circle class="cls-13" cx="873.14" cy="629.9" r="5"/><circle class="cls-13" cx="873.14" cy="610.9" r="5"/><circle class="cls-13" cx="872.14" cy="543.9" r="5"/><circle class="cls-13" cx="873" cy="499" r="5"/><circle class="cls-13" cx="917" cy="512" r="5"/><circle class="cls-13" cx="917.14" cy="691.9" r="5"/><circle class="cls-13" cx="938.14" cy="660.9" r="5"/><circle class="cls-13" cx="958.14" cy="516.9" r="5"/><circle class="cls-13" cx="1220.14" cy="509.9" r="5"/><circle class="cls-13" cx="528.14" cy="777.9" r="5"/><circle class="cls-13" cx="528.14" cy="765.9" r="5"/><circle class="cls-13" cx="527" cy="557" r="5"/><circle class="cls-13" cx="549.14" cy="499.9" r="5"/><circle class="cls-13" cx="571" cy="631" r="5"/><circle class="cls-13" cx="572.14" cy="743.9" r="5"/><circle class="cls-13" cx="613.14" cy="641.9" r="5"/><circle class="cls-13" cx="353" cy="562" r="5"/><circle class="cls-13" cx="634.14" cy="455.9" r="5"/><circle class="cls-13" cx="505" cy="703" r="5"/><circle class="cls-13" cx="635.14" cy="553.9" r="5"/><circle class="cls-13" cx="635.14" cy="597.9" r="5"/><circle class="cls-13" cx="636.14" cy="751.9" r="5"/><circle class="cls-13" cx="1113" cy="746" r="5"/><circle class="cls-13" cx="656.14" cy="645.9" r="5"/><circle class="cls-13" cx="680.14" cy="703.9" r="5"/><circle class="cls-13" cx="700.14" cy="621.9" r="5"/><circle class="cls-13" cx="700.14" cy="590.9" r="5"/><circle class="cls-13" cx="701.14" cy="554.9" r="5"/><circle class="cls-13" cx="699.14" cy="504.9" r="5"/><circle class="cls-13" cx="246" cy="661" r="5"/><circle class="cls-13" cx="744.14" cy="652.9" r="5"/><circle class="cls-13" cx="765.14" cy="621.9" r="5"/><circle class="cls-13" cx="785.14" cy="477.9" r="5"/><circle class="cls-13" cx="377.14" cy="757.9" r="5"/><circle class="cls-13" cx="377.14" cy="771.9" r="5"/><circle class="cls-13" cx="376.14" cy="525.9" r="5"/><circle class="cls-13" cx="397.14" cy="520.9" r="5"/><circle class="cls-13" cx="419" cy="619" r="5"/><circle class="cls-13" cx="419.14" cy="680.9" r="5"/><circle class="cls-13" cx="461.14" cy="662.9" r="5"/><circle class="cls-13" cx="482.14" cy="538.9" r="5"/><circle class="cls-13" cx="482.14" cy="476.9" r="5"/><circle class="cls-13" cx="482.14" cy="488.9" r="5"/><circle class="cls-13" cx="483.14" cy="574.9" r="5"/><circle class="cls-13" cx="483.14" cy="618.9" r="5"/><circle class="cls-13" cx="484.14" cy="772.9" r="5"/><circle class="cls-13" cx="572" cy="494" r="5"/><text class="cls-7" transform="translate(1250.64 741.4)"><tspan class="cls-14">G</tspan><tspan x="7.34" y="0">ood</tspan><tspan x="0" y="14.4">0 - 50</tspan></text><text class="cls-7" transform="translate(1250.64 663.4)">Mode<tspan class="cls-15" x="28.07" y="0">r</tspan><tspan class="cls-10" x="32.41" y="0">a</tspan><tspan class="cls-11" x="38.5" y="0">t</tspan><tspan x="42.68" y="0">e</tspan><tspan class="cls-16" x="0" y="14.4">5</tspan><tspan x="5.83" y="14.4">1 - 100</tspan></text><text class="cls-7" transform="translate(1250.64 582.4)">U<tspan class="cls-14" x="7.78" y="0">n</tspan><tspan class="cls-17" x="14.23" y="0">h</tspan><tspan class="cls-18" x="20.62" y="0">e</tspan><tspan x="26.95" y="0">alt</tspan><tspan class="cls-8" x="40.21" y="0">h</tspan><tspan x="46.57" y="0">y </tspan><tspan class="cls-19" x="54.5" y="0">f</tspan><tspan x="58.21" y="0">or </tspan><tspan x="0" y="14.4">Sensiti</tspan><tspan class="cls-20" x="36.13" y="14.4">v</tspan><tspan x="41.63" y="14.4">e G</tspan><tspan class="cls-21" x="57.78" y="14.4">r</tspan><tspan x="62.09" y="14.4">oups</tspan><tspan x="0" y="28.8">1</tspan><tspan class="cls-16" x="4.2" y="28.8">0</tspan><tspan x="10.64" y="28.8">1 - 150</tspan></text><text class="cls-7" transform="translate(1250.64 508.4)">U<tspan class="cls-14" x="7.78" y="0">n</tspan><tspan class="cls-17" x="14.23" y="0">h</tspan><tspan class="cls-18" x="20.62" y="0">e</tspan><tspan x="26.95" y="0">alt</tspan><tspan class="cls-8" x="40.21" y="0">h</tspan><tspan x="46.57" y="0">y</tspan><tspan x="0" y="14.4">1</tspan><tspan class="cls-16" x="4.2" y="14.4">0</tspan><tspan x="10.64" y="14.4">1 - 150</tspan></text><text class="cls-7" transform="translate(1250.64 299.4)"><tspan class="cls-22">V</tspan><tspan x="6.48" y="0">e</tspan><tspan class="cls-23" x="12.88" y="0">r</tspan><tspan x="17.58" y="0">y U</tspan><tspan class="cls-14" x="33.29" y="0">n</tspan><tspan class="cls-17" x="39.74" y="0">h</tspan><tspan class="cls-18" x="46.13" y="0">e</tspan><tspan x="52.46" y="0">alt</tspan><tspan class="cls-8" x="65.72" y="0">h</tspan><tspan class="cls-24" x="72.08" y="0">y</tspan><tspan x="77.09" y="0">,</tspan><tspan x="0" y="14.4">Haza</tspan><tspan class="cls-18" x="25.45" y="14.4">r</tspan><tspan x="29.76" y="14.4">dous</tspan><tspan x="0" y="28.8">2</tspan><tspan class="cls-16" x="6.43" y="28.8">0</tspan><tspan x="12.88" y="28.8">1 a</tspan><tspan class="cls-17" x="25.61" y="28.8">n</tspan><tspan x="31.99" y="28.8">d hig</tspan><tspan class="cls-17" x="56.89" y="28.8">h</tspan><tspan x="63.27" y="28.8">er</tspan></text><text class="cls-7" transform="translate(947.64 114.4)">Maximum <tspan class="cls-25" x="52.18" y="0">A</tspan><tspan x="59.31" y="0">QI </tspan><tspan class="cls-26" x="71.73" y="0">v</tspan><tspan x="77.3" y="0">alue</tspan><tspan x="0" y="14.4">o</tspan><tspan class="cls-17" x="6.54" y="14.4">n</tspan><tspan x="12.92" y="14.4">e d</tspan><tspan class="cls-27" x="28.27" y="14.4">o</tspan><tspan x="34.74" y="14.4">t = o</tspan><tspan class="cls-17" x="56.45" y="14.4">n</tspan><tspan x="62.83" y="14.4">e </tspan><tspan class="cls-28" x="71.63" y="14.4">c</tspan><tspan x="77.83" y="14.4">ounty</tspan></text><text class="cls-7" transform="translate(1114.64 114.09)">Median annual <tspan class="cls-25" x="76.38" y="0">A</tspan><tspan x="83.52" y="0">QI</tspan><tspan x="0" y="14.4">o</tspan><tspan class="cls-17" x="6.54" y="14.4">n</tspan><tspan x="12.92" y="14.4">e d</tspan><tspan class="cls-27" x="28.27" y="14.4">o</tspan><tspan x="34.74" y="14.4">t = o</tspan><tspan class="cls-17" x="56.45" y="14.4">n</tspan><tspan x="62.83" y="14.4">e </tspan><tspan class="cls-28" x="71.63" y="14.4">c</tspan><tspan x="77.83" y="14.4">ounty</tspan></text><circle class="cls-12" cx="931.14" cy="120.32" r="9.42"/><circle class="cls-13" cx="1098.14" cy="120.47" r="9.42"/><circle class="cls-13" cx="528.14" cy="724.9" r="5"/><circle class="cls-13" cx="548.14" cy="642.9" r="5"/><circle class="cls-13" cx="548.14" cy="611.9" r="5"/><circle class="cls-13" cx="548.14" cy="592.9" r="5"/><circle class="cls-13" cx="547.14" cy="525.9" r="5"/><circle class="cls-13" cx="223" cy="701" r="5"/><circle class="cls-13" cx="592" cy="505" r="5"/><circle class="cls-13" cx="592.14" cy="673.9" r="5"/><circle class="cls-13" cx="613.14" cy="642.9" r="5"/><text class="cls-29" transform="translate(600.73 879.84)">Uni<tspan class="cls-30" x="25.96" y="0">t</tspan><tspan x="32.24" y="0">ed St</tspan><tspan class="cls-31" x="72.32" y="0">a</tspan><tspan class="cls-32" x="81.45" y="0">t</tspan><tspan class="cls-33" x="87.73" y="0">e</tspan><tspan x="97.16" y="0">s</tspan></text><text class="cls-29" transform="translate(51.41 551.8) rotate(-90)">Air Quality I<tspan class="cls-17" x="86.72" y="0">n</tspan><tspan x="96.3" y="0">d</tspan><tspan class="cls-34" x="106.13" y="0">e</tspan><tspan x="115.47" y="0">x </tspan><tspan class="cls-35" x="127.65" y="0">V</tspan><tspan x="137.39" y="0">alu</tspan><tspan class="cls-36" x="160.38" y="0">e</tspan><tspan x="169.81" y="0">s</tspan></text><text class="cls-37" transform="translate(88.31 71.36)">Ai<tspan class="cls-38" x="36.92" y="0">r</tspan><tspan x="53.88" y="0" xml:space="preserve"> Qualit</tspan><tspan class="cls-39" x="173.96" y="0">y</tspan><tspan x="193.08" y="0" xml:space="preserve"> Ind</tspan><tspan class="cls-40" x="263.72" y="0">e</tspan><tspan x="283.4" y="0">x: 20</tspan><tspan class="cls-41" x="367.92" y="0">1</tspan><tspan class="cls-42" x="382.24" y="0">5</tspan><tspan class="cls-43"><tspan class="cls-44" x="0" y="36">M</tspan><tspan x="20.78" y="36">aximum and </tspan><tspan class="cls-45" x="160.97" y="36">M</tspan><tspan class="cls-46" x="181.44" y="36">edian</tspan><tspan class="cls-47" x="240.84" y="36"> </tspan><tspan class="cls-48" x="246" y="36">V</tspan><tspan x="259.65" y="36">alues pe</tspan><tspan class="cls-38" x="347.35" y="36">r</tspan><tspan x="357.52" y="36" xml:space="preserve"> US Count</tspan><tspan class="cls-49" x="465.23" y="36">y</tspan></tspan></text><text class="cls-7" transform="translate(88.61 202.61)">380</text><text class="cls-7" transform="translate(87.65 171.61)">400</text><line class="cls-50" x1="1242" y1="158" x2="1242" y2="789.5"/><line class="cls-50" x1="1241.5" y1="789.5" x2="1233.5" y2="789.5"/><line class="cls-50" x1="1242" y1="709.5" x2="1234" y2="709.5"/><line class="cls-50" x1="1241" y1="631.5" x2="1233" y2="631.5"/><line class="cls-50" x1="1241" y1="553.5" x2="1233" y2="553.5"/><line class="cls-50" x1="1241" y1="475.5" x2="1233" y2="475.5"/><line class="cls-50" x1="1242" y1="157.5" x2="1234" y2="157.5"/></svg>